<svg xmlns="http://www.w3.org/2000/svg" xmlns:xlink="http://www.w3.org/1999/xlink" width="2000" zoomAndPan="magnify" viewBox="0 0 1500 1499.999933" height="2000" preserveAspectRatio="xMidYMid meet" version="1.0"><defs><clipPath id="2c78b75c93"><path d="M 353.46875 50.164062 L 1146.21875 50.164062 L 1146.21875 1449.835938 L 353.46875 1449.835938 Z M 353.46875 50.164062 " clip-rule="nonzero"/></clipPath><clipPath id="79541f3e7b"><path d="M 829.371094 123 L 943 123 L 943 240 L 829.371094 240 Z M 829.371094 123 " clip-rule="nonzero"/></clipPath><clipPath id="cde5caa771"><path d="M 915 49.722656 L 997 49.722656 L 997 146 L 915 146 Z M 915 49.722656 " clip-rule="nonzero"/></clipPath><clipPath id="8c7553bdd0"><path d="M 935 198 L 1007.871094 198 L 1007.871094 276.972656 L 935 276.972656 Z M 935 198 " clip-rule="nonzero"/></clipPath></defs><g clip-path="url(#2c78b75c93)"><path fill="#ff4444" d="M 376.78125 1449.835938 C 372.605469 1449.835938 368.40625 1448.714844 364.628906 1446.40625 C 354.804688 1440.382812 350.839844 1428.070312 355.292969 1417.457031 L 616.683594 796.65625 L 376.800781 796.65625 C 368.707031 796.65625 361.21875 792.457031 356.949219 785.570312 C 352.710938 778.691406 352.316406 770.109375 355.925781 762.898438 L 705.839844 63.066406 C 709.8125 55.152344 717.886719 50.164062 726.71875 50.164062 L 1099.96875 50.164062 C 1108.457031 50.164062 1116.296875 54.777344 1120.40625 62.253906 C 1124.507812 69.6875 1124.230469 78.785156 1119.679688 85.972656 L 846.863281 516.726562 L 1123.300781 516.726562 C 1132.367188 516.726562 1140.601562 521.988281 1144.433594 530.203125 C 1148.257812 538.433594 1146.996094 548.140625 1141.144531 555.09375 L 394.65625 1441.558594 C 390.074219 1446.960938 383.476562 1449.835938 376.78125 1449.835938 " fill-opacity="1" fill-rule="nonzero"/></g><g clip-path="url(#79541f3e7b)"><path fill="#ff4444" d="M 939.820312 192.957031 C 941.726562 193.875 943.683594 192 941.859375 190.515625 C 932.960938 187.839844 924.042969 184.511719 915.785156 180.128906 C 907.199219 174.804688 898.5 168.5 892.480469 160.210938 C 885.730469 150.46875 883.652344 138.566406 880.398438 127.363281 C 879.769531 123.453125 876.621094 122.414062 876.125 126.902344 C 875.195312 133.554688 873.492188 140.050781 871.503906 146.554688 C 869.636719 155.210938 863.976562 161.945312 858.21875 168.410156 C 852.875 174.976562 845.878906 179.902344 838.492188 184.003906 C 835.847656 185.644531 833.0625 187.027344 830.351562 188.535156 C 829.835938 188.835938 829.457031 189.304688 829.40625 189.910156 C 829.226562 191.128906 830.503906 191.628906 831.464844 191.949219 C 838.15625 194.515625 844.914062 196.980469 851.34375 200.175781 C 865.785156 207.332031 881.316406 217.320312 885.5 233.957031 C 886.191406 235.601562 885.773438 238.492188 887.425781 239.449219 C 888.828125 239.992188 889.558594 238.5 889.628906 237.304688 C 890.359375 233.953125 891.425781 230.253906 892.546875 226.917969 C 899.238281 210.527344 914.3125 196.875 931.765625 193.15625 C 934.3125 192.792969 937.261719 192.417969 939.820312 192.957031 Z M 939.820312 192.957031 " fill-opacity="1" fill-rule="nonzero"/></g><g clip-path="url(#cde5caa771)"><path fill="#ff4444" d="M 925.875 105.097656 C 932.136719 106.472656 938.640625 107.589844 943.945312 111.488281 C 954.433594 119.246094 957.242188 132.726562 961.261719 144.441406 C 961.664062 145.339844 962.902344 145.636719 963.597656 144.898438 C 964.875 142.359375 964.066406 138.15625 964.835938 135.109375 C 966.554688 125.125 970.257812 114.851562 978.285156 108.234375 C 983.238281 103.992188 989.351562 101.386719 995.152344 98.496094 C 1001.703125 95.039062 987.820312 91.992188 985.519531 90.535156 C 968.71875 84.136719 964.898438 69.652344 957.796875 54.992188 C 956.644531 53.296875 956.347656 50.160156 954.046875 49.722656 C 952.152344 49.832031 952.074219 52.164062 951.890625 53.617188 C 951.335938 60.660156 951.828125 67.851562 949.097656 74.535156 C 944.480469 87.878906 931.480469 95.300781 918.621094 99.28125 C 917.070312 99.730469 913.964844 100.601562 915.597656 102.714844 C 918.699219 104.261719 922.519531 104.1875 925.875 105.097656 Z M 925.875 105.097656 " fill-opacity="1" fill-rule="nonzero"/></g><g clip-path="url(#8c7553bdd0)"><path fill="#ff4444" d="M 1005.929688 235.4375 C 999.769531 233.300781 994.183594 229.992188 989.21875 225.753906 C 981.773438 219.449219 980.277344 209.136719 976.925781 200.4375 C 976.6875 199.207031 975.210938 198.140625 974.140625 199.167969 C 973.230469 200.09375 973.371094 201.550781 973.15625 202.753906 C 971.78125 210.707031 972.085938 219.457031 968.660156 226.828125 C 961.867188 236.722656 949.132812 238.597656 938.210938 240.992188 C 937.253906 241.195312 936.042969 241.335938 935.671875 242.382812 C 934.894531 245.734375 942.234375 245.101562 944.414062 245.785156 C 951.007812 246.609375 957.773438 247.691406 963.449219 251.386719 C 972.125 257.023438 974.074219 268.046875 978.554688 276.535156 C 981.832031 278.367188 981.609375 270.601562 982.394531 268.660156 C 983.921875 261.207031 985.707031 253.210938 991.792969 248.058594 C 995.953125 244.90625 1000.410156 242.277344 1005.128906 239.699219 C 1006.027344 239.125 1007.429688 239.035156 1007.886719 237.945312 C 1008.414062 236.617188 1007.003906 235.78125 1005.929688 235.4375 Z M 1005.929688 235.4375 " fill-opacity="1" fill-rule="nonzero"/></g></svg>